<svg xmlns="http://www.w3.org/2000/svg" viewBox="0 0 32 32" width="32" height="32">
  <defs>
    <linearGradient id="bg" x1="0%" y1="0%" x2="100%" y2="100%">
      <stop offset="0%" style="stop-color:#1B2E5E;stop-opacity:1" />
      <stop offset="100%" style="stop-color:#0D1F42;stop-opacity:1" />
    </linearGradient>
  </defs>

  <!-- Background: rounded square, navy -->
  <rect width="32" height="32" rx="7" ry="7" fill="url(#bg)" />

  <!-- Subtle bottom-right accent line for "bottom line" wordplay -->
  <rect x="4" y="27" width="24" height="1.5" rx="0.75" fill="#ffffff" opacity="0.25"/>

  <!-- M glyph — left half, clean geometric -->
  <path d="M4.5 22 L4.5 10 L8.5 10 L12 16.5 L15.5 10 L16 10 L16 22 L13.5 22 L13.5 15 L11.2 19.5 L9.8 19.5 L7.5 15 L7.5 22 Z"
        fill="#ffffff"
        opacity="1"/>

  <!-- B glyph — right side, strong serifs stripped, clean -->
  <path d="M17.5 10 L17.5 22 L22.8 22 C24.8 22 26.2 20.9 26.2 19.2 C26.2 18.0 25.5 17.1 24.4 16.7 C25.2 16.2 25.7 15.4 25.7 14.4 C25.7 12.5 24.3 10 22.3 10 Z
           M20 12 L22 12 C23.1 12 23.7 12.7 23.7 13.7 C23.7 14.7 23.1 15.3 22 15.3 L20 15.3 Z
           M20 17 L22.5 17 C23.7 17 24.2 17.8 24.2 18.9 C24.2 20.0 23.6 20.5 22.4 20.5 L20 20.5 Z"
        fill="#ffffff"
        opacity="1"/>
</svg>
